/* XPM */
static char *_e855bc4d759404fa81240a61fecd1d7SI61STyvWndO2dGp[] = {
/* columns rows colors chars-per-pixel */
"64 64 243 2 ",
"   c None",
".  c #5E261A",
"X  c #6A270C",
"o  c #76300E",
"O  c #642B15",
"+  c #642C1C",
"@  c #6B2C1C",
"#  c #6A2A15",
"$  c #732D1A",
"%  c #6E3214",
"&  c #6C301A",
"*  c #743113",
"=  c #723319",
"-  c #783819",
";  c #76280A",
":  c #5B2A21",
">  c #642D24",
",  c #682D25",
"<  c #69342B",
"1  c #673427",
"2  c #663932",
"3  c #753822",
"4  c #7A4B37",
"5  c #863C0F",
"6  c #863B18",
"7  c #903F13",
"8  c #8C4214",
"9  c #884517",
"0  c #9D4D1C",
"q  c #964A16",
"w  c #9C521B",
"e  c #9D5215",
"r  c #8B440F",
"t  c #A24E1A",
"y  c #A55415",
"u  c #A65919",
"i  c #B15C19",
"p  c #B76819",
"a  c #BD761A",
"s  c #915634",
"d  c #BD7623",
"f  c #B96321",
"g  c #AD5322",
"h  c #C5741A",
"j  c #CA751D",
"k  c #C37C1B",
"l  c #CB7A1B",
"z  c #C67715",
"x  c #DB7E14",
"c  c #D37C1C",
"v  c #D77C19",
"b  c #C26F1C",
"n  c #C87824",
"m  c #D97A21",
"M  c #D37D23",
"N  c #C26F23",
"B  c #8A5F4D",
"V  c #976D51",
"C  c #A5774D",
"Z  c #BD831E",
"A  c #BD8534",
"S  c #D9960E",
"D  c #CB841B",
"F  c #C78716",
"G  c #D3821C",
"H  c #DC831C",
"J  c #DC8A1B",
"K  c #D78618",
"L  c #CE9A14",
"P  c #DE9D1C",
"I  c #D89717",
"U  c #E5950D",
"Y  c #EC9C09",
"T  c #F59C05",
"R  c #F49B0B",
"E  c #E98D14",
"W  c #E1851B",
"Q  c #E38B1C",
"!  c #E48816",
"~  c #E29214",
"^  c #EA9514",
"/  c #EB9A12",
"(  c #E5931C",
")  c #EB941C",
"_  c #EB9C1C",
"`  c #E49B15",
"'  c #F19716",
"]  c #E68B0F",
"[  c #D9AA17",
"{  c #DCB41A",
"}  c #DBB715",
"|  c #E9A90F",
" . c #E7A50E",
".. c #F5A206",
"X. c #F6AA06",
"o. c #F4A40C",
"O. c #F4AB0B",
"+. c #F9AB09",
"@. c #EDB40D",
"#. c #ECBC0F",
"$. c #F7B106",
"%. c #F6B40B",
"&. c #F9B30C",
"*. c #F5BC0D",
"=. c #F8BB08",
"-. c #EDA513",
";. c #E6AE17",
":. c #ECAC15",
">. c #EBAD19",
",. c #E4A71A",
"<. c #F2A311",
"1. c #F3AC13",
"2. c #F6AC14",
"3. c #E4B114",
"4. c #EAB414",
"5. c #ECBA14",
"6. c #E2BA1C",
"7. c #EDBB1A",
"8. c #E6B519",
"9. c #F3B412",
"0. c #F4BB13",
"q. c #F4BB1A",
"w. c #F7B815",
"e. c #C38423",
"r. c #C98C26",
"t. c #D48423",
"y. c #DB8521",
"u. c #DC8A22",
"i. c #D48626",
"p. c #CA9526",
"a. c #D59627",
"s. c #CA8736",
"d. c #CB983A",
"f. c #D39A37",
"g. c #D88D33",
"h. c #EA8D25",
"j. c #E38924",
"k. c #EB9324",
"l. c #E49725",
"z. c #CDA02A",
"x. c #D6A725",
"c. c #DAB728",
"v. c #D8A835",
"b. c #D9BB36",
"n. c #E2A423",
"m. c #EDAC28",
"M. c #E9B825",
"N. c #F3BA23",
"B. c #F4B82C",
"V. c #E8B934",
"C. c #DCC11D",
"Z. c #F8C30E",
"A. c #F9CB0E",
"S. c #F6C30C",
"D. c #F9D70F",
"F. c #ECC41B",
"G. c #EBCC1B",
"H. c #EAC617",
"J. c #F6C213",
"K. c #F9C512",
"L. c #F4CD13",
"P. c #FACC14",
"I. c #F4C41C",
"U. c #F9C41C",
"Y. c #F4CB1D",
"T. c #F9CC19",
"R. c #F7D415",
"E. c #F9D315",
"W. c #F6DC13",
"Q. c #F9DC14",
"!. c #F5D41B",
"~. c #F9D419",
"^. c #F4DB1D",
"/. c #F9DC1B",
"(. c #EBD51E",
"). c #F7E516",
"_. c #F9E415",
"`. c #FBE916",
"'. c #F6E41A",
"]. c #F9E51A",
"[. c #F6E91B",
"{. c #FAEA1A",
"}. c #F6EA16",
"|. c #FBE20D",
" X c #DDC525",
".X c #DCC631",
"XX c #E4CC24",
"oX c #EBCC23",
"OX c #E8C728",
"+X c #F3CB22",
"@X c #F5C52D",
"#X c #F6C928",
"$X c #ECD523",
"%X c #EBD42A",
"&X c #ECD92C",
"*X c #F5D524",
"=X c #F3DB25",
"-X c #F4D32A",
";X c #F4DA2C",
":X c #F9DA2B",
">X c #F9D923",
",X c #E9C938",
"<X c #F5C738",
"1X c #E8D338",
"2X c #F4D233",
"3X c #F2DB33",
"4X c #F9D838",
"5X c #F6E323",
"6X c #F9E322",
"7X c #F5E626",
"8X c #FAE43C",
"9X c #B88857",
"0X c #B48E69",
"qX c #D29F48",
"wX c #CB984D",
"eX c #E09E41",
"rX c #D4A349",
"tX c #D8A951",
"yX c #DCB253",
"uX c #ECB642",
"iX c #FABE41",
"pX c #E4B958",
"aX c #C29B6C",
"sX c #C39869",
"dX c #C69F71",
"fX c #D7AE71",
"gX c #E4BC6C",
"hX c #FBC946",
"jX c #EED849",
"kX c #F5D54A",
"lX c #F9D848",
"zX c #F5C956",
"xX c #ECD553",
"cX c #FDD857",
"vX c #EDC148",
"bX c #F9E247",
"nX c #FCE358",
"mX c #FCDC63",
"MX c #FDD963",
"NX c #EDC96D",
"BX c #FBE365",
"VX c #F9E46A",
"CX c #FFF073",
/* pixels */
"                                                        > O # # @ O . :                                                         ",
"                                                    < O $ 7 y i u y 8 o O 2                                                     ",
"                                                  @ o y M Q ) k.k.k.E c y = ,                                                   ",
"                                                # 7 j ) / I t.i.i.i.( ) k.n 7 @                                                 ",
"                                              @ q W ) J e.A wXrXqXd.e.D Q ) Q 0 ,                                               ",
"                                            & t j.( D d.pXxXkXkX<X<X<Xn.D D ) j.0 @                                             ",
"                                          1 q u.I Z yXkX3X$X!.T.P.A.K.U.N.I z ~ u.q +                                           ",
"                                        1 6 M P Z b.4X>X~.R.E.P.P.P.K.J.J.q.a.k k.y.5                                           ",
"                                        $ a l.F V.:X/./.~.R.E.P.P.P.K.K.J.0.q.l.l k.a &                                         ",
"                                      , 0 ( F c.:XW.Q./.~.R.E.P.P.P.K.K.0.0.*.w.J K ( q >                                       ",
"                                      - i.u.p.:X_.Q.Q.Q.~.R.E.P.P.P.K.K.J.*.*.%.>.K Q c =                                       ",
"                                    : s l.e.%X_.|.Q./.Q.~.R.E.P.P.P.K.K.J.*.w.%.%._ c ( u +                                     ",
"                                    3 wXa.v.'._.Q././.Q.Q.R.E.E.P.P.K.K.J.*.9.9.&.2.u.W G -                                     ",
"                                  < s eXp.2X).^.!./.Q.Q.~.R.E.P.P.P.K.K.J.*.%.| -.O.,.c ( w                                     ",
"                                  , 9Xa.c.6X^.} } !.Q.Q.~.~.E.P.P.P.K.K.J.*.4.,.S -.2.J J h %                                   ",
"                                  4 tXp.*X].G.F.6.H.Q./.~.R.E.D.A.A.K.K.Z.*.8.N.>.` o._ c u.9                                   ",
"                                > C v.x.5X5XoXY.7.H././.R.R.R.T.T.L.K.Z.Z.0.8.J.9._ <.o.c j.u                                   ",
"                                2 sXf.OX7X%XoXT.0.F././.R.~.~.T.T.P.K.Z.Z.0.8.0.&.^ U o.! H j =                                 ",
"                                4 fXp.=X&XjX=XT.5.+X/./.~.*XY.H.H.U.U.K.Z.q.3.#.O.R U / / c y.6                                 ",
"                                V fXz.6X&XVX3XR.*.F./.Q.*X{ L L L L >.U.0.0.8.0.&...^ ^ <.G j.w                                 ",
"                              2 0XqXc.].&XVXnX-X0.@.!.^.} [ OX@XN.;.S ;.I.4.7.q.9.o./ ^ <.K y.p                                 ",
"                              2 dXf.$X`.=XxXVXjXI.@.5.M.c.-X2X2X@XN.>.L M.6.Y.J.:._ ~ / R E H j &                               ",
"                              4 fXp.5X`.5X1X.X1X,X4.[ [ -XlXnXnXcXkXB.P L oXT.5. .S U <.R ' v t.-                               ",
"                              B fXz.5X{.[.7X5X&XjXM.[ oX3XnXBXBXmXmXcXm.>.*XL.4.4.1.1.o.T R x j.8                               ",
"                              V pXx.{.[.[.]._.'.1X,X5.:XbXBXBXmXmXmXcXiX>.!.F.4.9.O.O...T R x j.e                               ",
"                              0XtXc.{.[.[.]._.).;X1X*X8XBXBXBXmXmXmXMXhXM.F.5.9.&.X.X...T R ! j.y                               ",
"                            : 0XrXXX{.{.}.).).).].%X3XbXBXBXBXBXmXmXcXcXB.;.4.&.+.X.X...R R ! W p                               ",
"                            > 0XrXoX}.}._.).).'._.G.1X8XbXnXBXBXmXcXcXhXB.S >.&.+.+.X...R R ! H p                               ",
"                            < aXd.$X`.{.{.).).'./.G.%X7X^.=XlXcXcXhXB.>.-.~ :.&.$.X.X.....T ] v z                               ",
"                            1 aXd.*X`.{.].).).'./.G.%X$X!.!.-X2X@XN.4.| / ~ 1.&.$.X.X.....T ] v z                               ",
"                            1 aXd.=X`.{.].).).'.Q.G.%XC.G.L.L.J.0.*.@.9.` ~ 1.%.$.X.X.....T E m z %                             ",
"                            < dXd.:X`.{.].).).'._.G.XX X*XE.A.S.*.*.Z.q.` I 9.%.$.X.X.....T E m z =                             ",
"                            1 aXqX:X`.{.].).).'._.!.XX X*XE.A.S.*.K.K.q.P P 9.%.$.X.X.....T E m z =                             ",
"                            1 aXd.;X`.{.].).).'._.!. XXXG.~.L.J.0.J.J.;.n.P w.%.$.X.X.....T E m z                               ",
"                            > sXd.$X}.{._.).).)._.(.1XbX%XG.L.J.0.5.3.[ V.x.9.%.$.+.X.....T E m h                               ",
"                            > 0Xd.$X[.}._.).].'.).(.xXCXBXbX-X0.0.#X@X<XhXn.9.%.$.+.X.....T ! x a                               ",
"                              9Xf.oX{.}._.).].'.'.XXxXCXnXlX2X7.q.0.@X<XiXP :.%.$.X.X.....T ! H p                               ",
"                              C f.OX{.}._.).).'.'.$X.X3X=X3XlXc.8.9.2.>.n.S 9.%.$.X.X.....T K W p                               ",
"                              V f.c.{.}._.).).).).^.c.} ^.bXnXcX@X9.2.<.S ,.w.%.$.+.X...T R K Q u                               ",
"                              s f.x.{.}._.).).).'.^.OX} *XlXcXcX4Xq.2.1.>.M.9.&.$.X.X...T R x Q w                               ",
"                              s f.[ ).}.].).).5X=X:X6.#.~.-XkXkX<XN.O.O.7.3.9.9.&.X.X.....R v W 9                               ",
"                              3 r.p./.`.].).5X Xc.6.4.5.Y.6.,XV.M.,. .4.I.4. .S <.X.O.X.T ^ v H -                               ",
"                              @ n r.$X`.].].$Xb.jXOXJ.5.} OX[ { [ [ 4.5.U.9.-._ U O.O.o.<.l.x j *                               ",
"                                p J c.{.{.].XX,X;X!.I.3.6.*XY.I.I.I.U.5.I.w.2./ U O.X...m.g.W f                                 ",
"                                t Q z.7X}.].XX1X5XR.J.3.Y.~.~.E.P.P.P.7.4.0.+.R U O...o.uXs.Q 0                                 ",
"                                6 J r.&X}.].$X.X3XR.J.8.!.E.E.P.P.P.J.I.4.w.+.Y Y O.o.m.pXn W 9                                 ",
"                                = j D .X{.).'. X XY.J.;.Y.E.E.P.P.P.P.7.7.w.O.Y o.O.<.uXtXv j -                                 ",
"                                  u J z.6X).).=XXXY.U.;.F.~.E.P.P.P.A.5.7.q.:.2.2.O.>.zXs.Q u                                   ",
"                                  r Q r.$X[._.'.$XOXOX[ Y.~.E.P.P.P.A.5.>.N.| 9.2.O.V.gXn j.9                                   ",
"                                  % h J x.5X).).^.{ [ [ !.E.E.P.P.P.Z.J.,.,.| %.$.1.NXwXu.N %                                   ",
"                                    e ( e.%X'.).'.oX{ +X~.E.E.P.P.P.K.J.0.;.9.%.@.V.NXA l.w                                     ",
"                                    - c K v.7X)._.>X>X/.E.E.E.P.P.P.K.K.J.w.&.%.M.NXwXG M -                                     ",
"                                    + u ( e.,X6XQ.Q./.Q.D.E.E.P.P.P.K.J.Z.*.=.9.vXgXd h.g +                                     ",
"                                      - M J p.4X/._.Q.Q.D.E.E.P.P.P.K.J.Z.*.*.B.NXA J M 6                                       ",
"                                      > 0 ) D x.:X_.Q.Q.E.E.E.P.P.P.K.K.J.*.q.zXwXn k.w @                                       ",
"                                        $ b k.F V.>XW.Q.D.E.~.T.P.P.K.Z.J.0.<XqXk k.N %                                         ",
"                                          6 t.( a v.*X~.R.~.R.E.P.P.K.S.J.B.g.d ( G 5                                           ",
"                                          + q u.( a a.<X*XW.R.R.L.L.L.I.B.i.b h.u.8 O                                           ",
"                                            @ 0 j.( l k x.@X-X#X#X+XM.a.h c ) h.e >                                             ",
"                                              O 0 u.` J z a a Z e.a a z ! / J y &                                               ",
"                                                % 8 k l._ ~ J t.t.u.h.) ( j 8 @                                                 ",
"                                                  + * w j Q ) ) ' ) Q l u * ,                                                   ",
"                                                      + * 8 y i i y r o O                                                       ",
"                                                        . X X ; ; X X O                                                         "
};
