/* XPM */
static char *d4ecd3be8f1b4237c2707abbeacf356bGhJ2QAEYSlooe1Q6[] = {
/* columns rows colors chars-per-pixel */
"64 64 217 2 ",
"   c None",
".  c #4D1B0C",
"X  c #4D160E",
"o  c #531107",
"O  c #55150B",
"+  c #5A150C",
"@  c #55190D",
"#  c #5C190D",
"$  c #541D10",
"%  c #5C1B10",
"&  c #560E06",
"*  c #63140C",
"=  c #6A140D",
"-  c #62190E",
";  c #73150F",
":  c #77180E",
">  c #611A11",
",  c #7E1A13",
"<  c #7F1710",
"1  c #6A0F09",
"2  c #5B2414",
"3  c #552917",
"4  c #5C2B16",
"5  c #552C19",
"6  c #5C2E1A",
"7  c #5D311B",
"8  c #5E3517",
"9  c #632C16",
"0  c #6B2F14",
"q  c #652D19",
"w  c #6A2D1A",
"e  c #692719",
"r  c #742115",
"t  c #643216",
"y  c #64331B",
"u  c #6B331B",
"i  c #6B391E",
"p  c #6B3217",
"a  c #72351D",
"s  c #743B1E",
"d  c #7C3A1E",
"f  c #7B371E",
"g  c #563C2A",
"h  c #593B2B",
"j  c #573826",
"k  c #593B31",
"l  c #643523",
"z  c #6D3520",
"x  c #6D3922",
"c  c #603C2B",
"v  c #6A3F2B",
"b  c #673E20",
"n  c #743620",
"m  c #743C22",
"M  c #7B3C22",
"N  c #763C29",
"B  c #623D32",
"V  c #762621",
"C  c #69442A",
"Z  c #744124",
"A  c #7C4225",
"S  c #7D442A",
"D  c #7A472D",
"F  c #7D4A35",
"G  c #7F4A35",
"H  c #6C523D",
"J  c #7C523D",
"K  c #7D4C42",
"L  c #784E48",
"P  c #6B5B4A",
"I  c #765440",
"U  c #6A5D51",
"Y  c #605A51",
"T  c #7F5855",
"R  c #58645F",
"E  c #6C614F",
"W  c #6C6153",
"Q  c #6B655B",
"!  c #68695F",
"~  c #756554",
"^  c #5A6662",
"/  c #5C6A66",
"(  c #5B6A65",
")  c #636E6C",
"_  c #626A65",
"`  c #716D68",
"'  c #65726E",
"]  c #6E746E",
"[  c #70746C",
"{  c #677471",
"}  c #6A7571",
"|  c #6F7A74",
" . c #717873",
".. c #727671",
"X. c #861C0E",
"o. c #841C13",
"O. c #8B1E15",
"+. c #911F15",
"@. c #832214",
"#. c #8C2116",
"$. c #8D211A",
"%. c #852C1D",
"&. c #8A2C1C",
"*. c #85271F",
"=. c #922116",
"-. c #942319",
";. c #9B251C",
":. c #9F2A1E",
">. c #9C2417",
",. c #A2261D",
"<. c #A3291B",
"1. c #AD2B1E",
"2. c #AD261A",
"3. c #B32B1D",
"4. c #A9301E",
"5. c #9D2620",
"6. c #9E2A22",
"7. c #952924",
"8. c #833E24",
"9. c #893F26",
"0. c #8A3D2B",
"q. c #9D3022",
"w. c #8D3B34",
"e. c #A32721",
"r. c #A42821",
"t. c #AD2B21",
"y. c #B32C22",
"u. c #B52B23",
"i. c #AD3226",
"p. c #A4322C",
"a. c #BB3725",
"s. c #B5382C",
"d. c #B83726",
"f. c #844225",
"g. c #8A4526",
"h. c #864926",
"j. c #85442B",
"k. c #8A442A",
"l. c #854A2C",
"z. c #8B4A2C",
"x. c #92462B",
"c. c #934B2C",
"v. c #984B2E",
"b. c #984328",
"n. c #87512E",
"m. c #8D522E",
"M. c #96532E",
"N. c #9C512D",
"B. c #844C32",
"V. c #8B4C31",
"C. c #914C31",
"Z. c #8B5332",
"A. c #8B593C",
"S. c #885735",
"D. c #945432",
"F. c #9A5532",
"G. c #945A35",
"H. c #9C5A35",
"J. c #955B3A",
"K. c #9A5D39",
"L. c #945639",
"P. c #B1422D",
"I. c #AF4337",
"U. c #A8443A",
"Y. c #B2493D",
"T. c #B64A3A",
"R. c #A35E36",
"E. c #A35E39",
"W. c #A95F3A",
"Q. c #BF503D",
"!. c #84612E",
"~. c #8D673A",
"^. c #9D613C",
"/. c #946739",
"(. c #A16037",
"). c #A5613A",
"_. c #AA643D",
"`. c #C14030",
"'. c #814C43",
"]. c #864D49",
"[. c #964F4B",
"{. c #825046",
"}. c #85564F",
"|. c #835A4F",
" X c #835754",
".X c #9A5950",
"XX c #B65649",
"oX c #AC5E55",
"OX c #8E6144",
"+X c #9F6542",
"@X c #936B41",
"#X c #9C754B",
"$X c #86605A",
"%X c #9D6B5F",
"&X c #A16542",
"*X c #AD6841",
"=X c #AC6641",
"-X c #AC6355",
";X c #B46357",
":X c #B96355",
">X c #B36358",
",X c #BA655A",
"<X c #B86E5D",
"1X c #947B67",
"2X c #877973",
"3X c #8B6D67",
"4X c #B56F64",
"5X c #AF786B",
"6X c #B67567",
"7X c #B06F6C",
"8X c #C5665D",
"9X c #9C836C",
"0X c #9E886F",
"qX c #998374",
"wX c #A1876F",
"eX c #A28670",
"rX c #A28870",
/* pixels */
"                                                                                                                                ",
"                                                                                                                                ",
"                                                                                                                                ",
"                                                                                                                                ",
"                                                      :X:XXXY.I.I.Y.XX,X-X                                                      ",
"                                                4XXXP.d.4.1.1.1.1.1.1.t.i.s.XX-X                                                ",
"                                            ,XQ.d.y.1.1.<.:.6.e.e.r.t.t.u.1.1.i.Y.6X                                            ",
"                                        5XQ.a.3.t.t.,.=.o.; = * * = ; , =.,.t.t.<.i.U.%X                                        ",
"                                      ,X`.u.u.t.;.o.= + O @ @ . . @ $ O O * , -.r.t.t.p..X                                      ",
"                                    <Xa.y.u.;.o.* O @ 2 u n n u s M m u 9 $ o + , e.t.1.6.].                                    ",
"                                  4Xs.3.1.-.= O @ 9 n 8.x.c.x.f.g.c.v.c.g.f.u 2 X = ;.t.t.&.].                                  ",
"                                %Xp.1.1.O.* O q M g.k.f u i V.h.h.c.M p z S h.g.u @ * $.u.<.V 3X                                ",
"                                4X<.-.O.+ $ a k.f.a y v D i m.h.z.c.s l.j.z u j.c.S 2 + @.X.: $X                                ",
"                                8X1.o.& . a z.d p D G.H.l.i M.h.z.v.M J.K.J.B.y a z.k.4 + o.O.|.                                ",
"                                oX2.+.o 2 8.i x J.^.G.E.M y D.h.V.v.n K.K.H.H.J.i q k.N # =.=.}.                                ",
"                                [.>.@.o 4 8.i J.K.).E.W.A i M.h.B.v.n K.^.R.E.H.A.i k.M + $.$.}.                                ",
"                              6XU.;.-.* q j.m ^._._.(.).A i M.h.B.N.M K.^.R.R.R.A q k.0.*.7.-.w.3X                              ",
"                              I.1.u.u.$.e 8.n +X_._.)._.A i F.h.V.N.M K.^._.W.(.A 4 l.b.d.t.y.;. X                              ",
"                              XXu.u.u.o.q M n +X=X_._._.A i F.l.z.N.M K.^.).W.).A 7 V.b.d.u.u.#.L                               ",
"                              5X7.;.O.* 9 A n &X*X_._._.S i F.h.z.N.M K.^.).)._.f.7 V.x.q.;.=.e 2X                              ",
"                                [.; * O p 8.M &X*X_._._.S i F.h.z.N.M K.^.(.E._.j.y l.j.r < 1 L                                 ",
"                                ;X;.O.- a f.M &X*X_._._.S i F.h.z.F.m K.K.(.R.W.h.y j.j.%.u.>.I                                 ",
"                                ,X1.;.- a f.M &X_._._.W.S i F.h.z.N.m K.K.(.R.W.h.y l.f.&.y.,.K                                 ",
"                                ,X1.>.- a g.s &X_._._.W.S i D.z.z.M.M K.K.(.R.W.h.y V.f.&.y.,.'.                                ",
"                                ,X1.;.> u f.M &X_._.).R.A i F.h.z.M.M K.K.H.E.).h.y V.f.&.t.;.'.                                ",
"                                ,Xy.;.> u f.Z &X_.).K.R.A i F.h.z.M.M H.J.H.E.E.h.y V.f.&.t.-.{.                                ",
"                                ,Xy.;.% p f.Z &X).).H.W.A i F.h.V.c.s G.K.H.E.H.A y V.f.&.t.-.{.                                ",
"                                ,Xy.;.# p f.M +XR.R.R.).A i M.h.V.c.s K.K.H.E.H.A y V.k.&.t.-.{.                                ",
"                                ,Xy.;.# q 8.M ).R.H.R.).Z i D.k.V.c.s J.H.H.H.F.A y l.k.&.t.-.'.                                ",
"                                ,Xy.;.# 9 d M ^.R.F.R.R.Z i D.k.V.c.s K.H.H.H.M.M y l.k.&.y.-.K                                 ",
"                                ,Xy.;.# p 8.M ^.R.H.H.H.m l z.g.z.c.s K.H.F.F.c.M y l.j.%.y.;.K                                 ",
"                                ,X3.;.# u 8.n ^.H.F.F.F.M b ~.s l.c.s K.H.M.F.c.s y j.k.&.t.;.K                                 ",
"                                ,X3.;.+ w f.n K.F.F.M.F.s 8 C t l.c.a H.F.M.F.c.M 7 j.j.&.t.;.K                                 ",
"                                ,X3.;.+ 9 f.s J.z.k.z.z.i 7 D t l.x.a L.B.l.B.j.m 7 j.j.&.t.;.K                                 ",
"                                ,X3.;.# w f.i m 7 4 6 3 3 6 OX9 S c.i Z 6 6 7 6 4 4 j.k.&.t.;.K                                 ",
"                                ,X1.-.# w f.N A m N m N m x A.q S z.s m m m N m Z m k.k.&.t.=.K                                 ",
"                                ,X1.-.# q g.c.c.c.V.Z.c.x.l.A a S k.k.c.z.z.h.z.z.k.8.g.&.,.#.K                                 ",
"                                ,X1.-.# 9 h.v.v.c.#X#X/.Z.A.x a f.f.S.n.J.~.#Xl.k.k.8.8.&.,.=.K                                 ",
"                                ,X1.-.@ q l.c.c.z.@X~./.Z.Z 9 s l.f.Z D ~.!.~.l.k.k.8.8.&.r.-.'.                                ",
"                                ,X1.-.+ q j.z.c.h.x 6 2 f 9 0 A V.z.f.a q 4 t p k.k.M 8.&.r.=.'.                                ",
"                                ,X1.-.+ q j.x.c.z.s 9 w 0 u d 8.z.k.h.d a 9 q M k.j.M 8.&.r.=.'.                                ",
"                                >X1.-.+ q 8.p i p p y w t p g.8.j.g.z u y t w u a q 8.9.&.<.=.'.                                ",
"                                ;X<.-.# q 8.x S.S.S.n.S.B.i k.f.j.g.z V.S.Z.Z.Z.B.l f.9.&.,.=.'.                                ",
"                                ;X<.-.# q 8.m J.m.m.Z.m.M y h.f.j.g.s G.K.F.D.D.A 6 f.9.&.,.=.'.                                ",
"                                ;X<.-.# w f.m L.c.c.c.c.n y l.f.j.g.i G.K.F.H.F.A 7 A 8.&.,.=.'.                                ",
"                                >X<.=.# q j.m D.c.c.v.c.n i z.f.j.g.a G.H.F.H.F.A 7 k.9.&.r.=.'.                                ",
"                                >X<.=.+ q f.m D.c.c.v.c.m i k.8.j.f.a D.H.F.H.F.N 7 k.9.&.r.=.'.                                ",
"                                ;X,.$.+ q 8.m D.c.C.x.x.s y k.M j.f.n D.F.M.F.c.M 7 k.8.&.r.=.'.                                ",
"                                >X,.#.+ q 8.n Z.z.z.x.x.x y j.8.j.8.a m.D.c.c.c.n 6 j.8.%.e.#.K                                 ",
"                                >X,.#.@ 9 8.a Z.h.c.x.x.z q j.8.j.f.u n.D.c.c.c.n 6 j.8.%.5.o.K                                 ",
"                                >X,.#.@ 4 8.i Z.k.x.x.k.i y j.8.j.g.p l.C.c.x.x.n 6 j.d %.5.X.K                                 ",
"                                -X;.#.O 9 f.i m.g.x.x.f.y y k.8.j.g.p n.V.x.x.x.n 5 j.f %.;.o.K                                 ",
"                                oX;.#.O q 8.i m.j.k.k.M y y j.M j.g.p Z.l.z.k.k.a 5 j.M %.:.O.K                                 ",
"                                oX;.#.+ q 8.i A p u q q 4 y h.M f.g.p S p w q q 4 3 f.M %.:.+.K                                 ",
"                                oX;.#.+ q 8.j c h g h h h c j.M f.f.y C g g g g g j A M %.;.O.K                                 ",
"                                oX-.O.+ e G `  .|  . ... .! v s j.f.U } |  .] ] [ ! l 8.&.;.O.L                                 ",
"                                oX-.O.+ e G } { { { { ' ' / v d f.f.Q { { { { ' ) _ B 8.&.;.O.L                                 ",
"                                oX-.o.O u B.] { ' ) ) ) ' ^ v d j.A Q { ' ) ) ) ) / B 8.&.;.o. X                                ",
"                                oXO., O w D _ / / ^ / / / R c a M n Y / ^ R ^ ^ ^ ^ k n %.-.: T                                 ",
"                                %Xj.N v F J U E U U W W ~ W I J J J P E E W W W W U H G B.0.u I                                 ",
"                                qX9X1X1X9X9X9X9X9X9X9XwXwX9XeXwX0X0X9X9XeXrXwXwXwX9X0XeX1X1X1X~ 2X                              ",
"                                                                                                                                ",
"                                                                                                                                ",
"                                                                                                                                "
};
