/* XPM */
static char *_4d61feb1add4d6c9090a19ef2a71cadjFR26XxXBuOAnIQp[] = {
/* columns rows colors chars-per-pixel */
"64 64 60 1 ",
"  c #1C2F33",
". c #1C2E39",
"X c #1E3335",
"o c #1E333A",
"O c #1F383C",
"+ c #203537",
"@ c #21363A",
"# c #233B3D",
"$ c #25403F",
"% c #1F3443",
"& c #213743",
"* c #233D43",
"= c #243D4C",
"- c #283F4E",
"; c #253F50",
": c #254345",
"> c #284646",
", c #274847",
"< c #294847",
"1 c #26434B",
"2 c #25464E",
"3 c #28474F",
"4 c #274B4B",
"5 c #27494D",
"6 c #284B4A",
"7 c #2A4B4B",
"8 c #294D4B",
"9 c #29484C",
"0 c #284A4D",
"q c #2B4C4D",
"w c #2A4F4E",
"e c #2B4F4E",
"r c #304E4E",
"t c #2B504E",
"y c #2C504E",
"u c #30504F",
"i c #244150",
"p c #264750",
"a c #284453",
"s c #2A4453",
"d c #284454",
"f c #284655",
"g c #264A52",
"h c #284A53",
"j c #284B53",
"k c #2B4B53",
"l c #2B4F50",
"z c #284B55",
"x c #2B4D54",
"c c #294E56",
"v c #2D4F57",
"b c #2E4B59",
"n c #304655",
"m c #304E55",
"M c #314B59",
"N c #2B5150",
"B c #2D5151",
"V c #2F5158",
"C c #315252",
"Z c #325158",
/* pixels */
"@111**:*:*1:::****#,,,$@111@&&&&#1:1:::*::::*&&**:@#:>$@111@&===",
"1cggghzghggghcghgh1NwNt2cgc2iiii1chhhhhhhhhhghgggg1NwBwhchh1idid",
":g22hhpggp20h52h55,www83z2h1=11i&hhhhhhh2hh21222221w6w80h0h*=i=p",
"*zgphhhhhzhhhhhh5h4www6hchc:=ii11hhhhhhhhhhg25g5hh1w4wy2chc1=i=d",
"@122111121:12111:2,Nw0w*215&=iii*:1111111122221112:w6ww@110*=i=d",
"#w68:&===&22h1&=&&:t6w6:w681id;=:66w:&===*hhh:&===:w0N6*w68:=iia",
"#Nww0=iii1chh2=iii1w6w86h0w1ii==0twBw;iii3ch52=i1i1www66B0w:=i=d",
"*N0w5=ii=1chh1&iii:www61www1;ii;1www0iiid1chh1=i==1www66lwy:=iid",
"#w4w1====1c5h1&ii;:wwwt:w6w:=1ii:66w>=i;d1chh2=ii;1wwww>Bw6*=aid",
"X:,,,:*:1:2hg1&i=i1wwB,*112O=1=iO#,,:*::>:hch2=iii1www>1311&=iid",
"@Nwwww0ww4:2h1=i1;:wy,1chhc1=i1i:wwwwwwBww:3c1=iia>wl>achhh1;iid",
"#www4411146:h2&i1;1t,1h3h0h1=iii1www0www44w*30=iid1y,3clhhh1iiid",
"#Nw6ww444606,*=iii1:2chhhhc1;iii0wwwwwwwwwww,*=iid*$hxcchhh1iiid",
"X:,,,,::,,,1, &==i#X1111113*;iid*,,,:>>>>::>,X&==i# >111:10*iiid",
"+,,4,2a2222221&=1i*666,,66,#=iii*666,2h3111221=iii*6666>>66:;aaa",
":Nww6zcggg22h0=iii3wwwwww0w1=iii:wwBw2hhhhhhh0=dad0BCyw6www,=aaa",
":w8w6hh2hg:15g=i=i1wwwww0061iiii:wwB,1hhh0hhh5&daa3ye61666y:=aaa",
":N84w2hahp22h0&i1i1wwww868w:=iii1www41hh00h2ch&aad1weew666C:=aad",
":www6*111:::,X.=&&o@:**:***&&**&,wwh4o::,1,:1oo===o@11::1>>*&&*1",
":Nww6wwwww0h,X&iii&#hchghhphhh551www,6wwtw6B,X&dii&*hxcclllchhhc",
"#NwN6,wwwwB::y=i=i1c1hh5hg555g22:www6wwww:B::w=i1a3c1hch300hhhhc",
"#hwh,0wlww,:Nw=i=i1ch:2hhhhhh5gg,www46ww0t,:B61i1d3cc1hchhmmcmhZ",
":hww6,666,4Nww1i=i2hch1111111*1::N4w4#,,66,ww6&i1h=cch>>30ww3>1l",
",Nww61332,wwww1i=a1hhh0,66w*%&=&,t4w,#111:www6&aad1lcch:666*===-",
":w8w0cchh,www6=iii1ccc06BwB1iii=,t4w6hcg51wwy61aia3ccm06BwC6dddb",
"#t8w0hhhh,www6=iii1chcl6w0w1;11=4w460hh22,wwl6=a=-3ccch6wwC>aaah",
"*Nwwlchhh6wwl6&iid1cccl,BwB:iiii6w,wwhhhh,www6=aaa3ccch>BBC<-ddb",
":w6w6*1==:www8#::1&::>>#>>6*****,w1B6&==**wwlw@1>1*:*>>#6>>:>*&1",
":h0l6=i=i*wwl66Bwywwwwwlwwwwww0w,wwl,=ii;:ywBw6BBwwwwwwwwmwwww6u",
":h0w6=aia:wwlw6lwwwBwwwyw66441,w:w6w6=aai*wwBw6ywwwwwwwC6wCwwwru",
":N0lw=iia>BwlwwlwwwlwBBw0644,,164w4w6=dad:wBBw6BwBwwBewB6rCwwrrC",
"#6,w>&=1-*66w,:w>66w66>66666,664:6,w:&==a*8ww,#w666666w6w6>66rrw",
"@111112231112111*1:6,,:*h3h&&1==&112311321331*131>#>6w>1h11&-111",
"*chhhhhhclhhhchhhc6BlBw3Zhc1ii;i2chhhhhhhchhhclhhV:wCZwmZmZ3adah",
"#hhhhhhhhhhhhhhhhc>Blwwhhch1i=;=2hg22203hhhh0hhhhh6wCCChZcl3adal",
":hhhhllhhccchcchhZ,Blwyhccc3iii=2zghhhhhccclllhhhZ6uCCwhZcm0aaad",
"@11111:13:11111113:Bwwy@1>0*i1ii&111:111313>1:1113:CCCw*www*nnad",
":w6w,&=;;*chh3=aa;1Cww6:Bwy:i=ii:6ww,====1c331=a1=:CCCw>Cwr<ndad",
":BwBlidaahVhlhaaad0CwwwyB6B>i=ii:Bww0iiaa3chca1aad>CCCwCCrr0dssd",
":BwB0iaidhchh31d=a>Cw68wy6w:=1i=,www0;iia2lhh3=aad0BwCurCCCwddsn",
"*w66>=;;a1clh3=d11>B46y>www:;i=1:60w,&==a3chc1&aaa1CCCy6Cwr>anaM",
"#,,6>,1>,*hch0=ai;3w6B>1330&i1=i*,,:,:,,>:hcc1&aaa>CCC>3311*nnan",
":BBBwwwwww,hc3=aaa1wB:3chhV2ii1=1wwwwwwww8:1c1=aaa<CC>hZZcZ3addd",
",B006wwwwww:hh-aaa:C:&cahhc1;ii=:w0ww66666w#3h=iaa>C>hZmmll1adda",
">VwwwBBwwwww6*1dad:#1chhhhc2iiii>Bwwwwwewwww,&=aad1#hZmmZmZ0andn",
"@6,>>,,>>>::>X&==1#X33>>>>>*iiid#:>6>::>,::,, &==a@ >3>>w1>>dd-M",
"#www62hhh3a3h3=a=i*www86666:i=;i#6ww>1hh0213h1&aad:wwww6666>d1=d",
">Bwwwhchlcchh3=dad0ywwwwwww>i1==>BwBwaccchllh01aadwCwwwwCwwwd1=a",
">B6w0hhhhc02h2=did3ywwyww66>ai==>wwB0hchhhchh0=iia3wwwBweer0da-a",
">B66w3hhhhp2h0&aia1wwww866w:=1==6wwt63hhahhhc0&i=d16wwww6we>adaa",
">B4w6*>,,:::,Xo=&&@@>>:*1>1*111*:wwN,*,::>>>6X.&=1@X11:11>:*11*1",
":B4l66Bww66B:X&iad**hchchhhhhhhh,wBw6wwwwwwy>O&aia**3chhhhhhcmhZ",
":N406ww4,,w:*w=iaa3c13ch0022222h4tww6wwww4w:>w=a1a3c:3hhhhhhhl3m",
",w0w6BN66w,,Bw=iid3ll:2chchhhhh36tww6wwwww,>B61aad3lc:3cllhhmchm",
":Bwl6>6,6:6tw8=aia1lcc::3>3311:*,w606:1,4:6Bw6=aaa3hhh11w>>>103>",
"#lwB01212:tww6=iii1chzh:w6w*&=&=:w4ww1122*www6=aaa1chch,w6w*=a1a",
"#Nwwwlchc>w6001iii1chh06BwB3aaaa1wwBwcchc,www61iaa1mhc0wBwCwaaab",
"#wwwwhhhh>wwww=ii;1chh0:Bwy3a1a=6llwwchhh1www6=iia1mcc06weC>-aad",
":hww6hclh>www8=a=a=chc0:Bwy>-aaa6Bwwwchhh6w0w6&a=a1hcch,wwC:=dad",
":w6B8&11=:lww8@&::#:>>::>:>:*#**>BwB6*1&&#yww6#::1#,>>>*>>>>><>1",
"*wwB6&aii:wwB66BywwBCywwwwwlwww66BwBw-aii*www66BwwywwwBwwwwrrrwC",
"@w6y6=aii*wwBw>lwwwBw666w66wwww66BwBw1aaa1www84wwwwwwwwwwwwwww6C",
"#Nww6;iii:wwBw,BwwwBw6www66wwwww6BwCwaaaa>www66NwwwwlwCBwwwwwwwC",
"@666:=1==*66w>#6666666666>>>6666#66w>---1*6>6>#666,,>6666666>><w"
};
