/* XPM */
static char *_7aa8ea69dc744efd19cf3629149b5773KCAJHLHjnJrkslU[] = {
/* columns rows colors chars-per-pixel */
"64 64 245 2 ",
"   c None",
".  c #030104",
"X  c #0A0606",
"o  c #0B0609",
"O  c #0D0A0A",
"+  c #090709",
"@  c #130D0D",
"#  c #1B0F0D",
"$  c #17120F",
"%  c #0B0B14",
"&  c #130E12",
"*  c #151314",
"=  c #1A1314",
"-  c #161719",
";  c #19161A",
":  c #1A191A",
">  c #1B1918",
",  c #231D1A",
"<  c #271A17",
"1  c #220F17",
"2  c #2A221D",
"3  c #39251C",
"4  c #15182A",
"5  c #0C1A37",
"6  c #10153A",
"7  c #261E22",
"8  c #182636",
"9  c #162C33",
"0  c #282727",
"q  c #332A26",
"w  c #352A26",
"e  c #3C332E",
"r  c #363128",
"t  c #262A32",
"y  c #2A363A",
"u  c #3C3531",
"i  c #3A3735",
"p  c #2E2F30",
"a  c #47372C",
"s  c #443B34",
"d  c #493D34",
"f  c #433D3A",
"g  c #473A35",
"h  c #4E392C",
"j  c #4A4136",
"k  c #45423C",
"l  c #4D433C",
"z  c #434234",
"x  c #52463C",
"c  c #57473B",
"v  c #56503F",
"b  c #6D5138",
"n  c #6E613F",
"m  c #091557",
"M  c #0A134C",
"N  c #0B2954",
"B  c #10324F",
"V  c #293544",
"C  c #07196A",
"Z  c #051C7C",
"A  c #041B74",
"S  c #062179",
"D  c #0D346C",
"F  c #463E41",
"G  c #154653",
"H  c #155C73",
"J  c #134968",
"K  c #246074",
"L  c #494646",
"P  c #544A43",
"I  c #5A4D44",
"U  c #564C47",
"Y  c #5C5146",
"T  c #5D534B",
"R  c #5E594D",
"E  c #5C5958",
"W  c #514C56",
"Q  c #63554B",
"!  c #64594E",
"~  c #6B5B4D",
"^  c #665649",
"/  c #745A47",
"(  c #665B53",
")  c #6C5E51",
"_  c #645954",
"`  c #715F52",
"'  c #614F4A",
"]  c #76644B",
"[  c #6C6155",
"{  c #6A6359",
"}  c #736355",
"|  c #736559",
" . c #7A6658",
".. c #756A5C",
"X. c #7C6B5C",
"o. c #776955",
"O. c #79745C",
"+. c #686765",
"@. c #7B6D62",
"#. c #7B6C69",
"$. c #7B7268",
"%. c #7D7D7D",
"&. c #695F62",
"*. c #865D31",
"=. c #936436",
"-. c #8E693E",
";. c #866546",
":. c #846C59",
">. c #877854",
",. c #957659",
"<. c #8E714C",
"1. c #816F61",
"2. c #847364",
"3. c #837669",
"4. c #8C7A6B",
"5. c #887869",
"6. c #917D6B",
"7. c #897D74",
"8. c #937E71",
"9. c #936A4D",
"0. c #8D8956",
"q. c #988F54",
"w. c #A5955B",
"e. c #88846A",
"r. c #96846A",
"t. c #94956D",
"y. c #8B8275",
"u. c #958273",
"i. c #9A8575",
"p. c #948479",
"a. c #9C8979",
"s. c #989477",
"d. c #A78966",
"f. c #A39D68",
"g. c #A18B75",
"h. c #A48D7C",
"j. c #A88D7B",
"k. c #A9927C",
"l. c #B59874",
"z. c #B58B66",
"x. c #B8B471",
"c. c #CC9D72",
"v. c #C8A478",
"b. c #D4AA78",
"n. c #DBAB6A",
"m. c #F4B776",
"M. c #EDB770",
"N. c #C6BB5F",
"B. c #C8C566",
"V. c #D0CC73",
"C. c #F9C77C",
"Z. c #CAC259",
"A. c #051D84",
"S. c #062687",
"D. c #033495",
"F. c #083EA3",
"G. c #0B4787",
"H. c #0F5095",
"J. c #0D6693",
"K. c #16758F",
"L. c #0657A8",
"P. c #015AB3",
"I. c #0B51A6",
"U. c #0C67A7",
"Y. c #0667B7",
"T. c #0774BC",
"R. c #1076A9",
"E. c #057CC3",
"W. c #1889A8",
"Q. c #0688C8",
"!. c #0894CD",
"~. c #0A9DD4",
"^. c #0BADDB",
"/. c #0AA7D7",
"(. c #09B4DC",
"). c #14B5DA",
"_. c #16A7C7",
"`. c #0AB8E4",
"'. c #10B4E1",
"]. c #20ACD1",
"[. c #888786",
"{. c #9A9896",
"}. c #989286",
"|. c #A99685",
" X c #A49B92",
".X c #B49D89",
"XX c #BCA882",
"oX c #ABA499",
"OX c #BAB391",
"+X c #B9B3A6",
"@X c #BBBAB8",
"#X c #ACA9A8",
"$X c #C9A885",
"%X c #C5B49C",
"&X c #D9BD99",
"*X c #D4B088",
"=X c #EAB884",
"-X c #F4BD8A",
";X c #C7B7A6",
":X c #C8BCAB",
">X c #D9C498",
",X c #D0C78F",
"<X c #E8C58B",
"1X c #FACA88",
"2X c #FDD48B",
"3X c #FDD587",
"4X c #E6C999",
"5X c #FCDC9C",
"6X c #FBD695",
"7X c #F1CC99",
"8X c #D9C9A3",
"9X c #CBC6B9",
"0X c #DDD8B4",
"qX c #D2C9B0",
"wX c #E5CBAC",
"eX c #E9D6AA",
"rX c #FCDDA3",
"tX c #F9DAA6",
"yX c #E9D5B6",
"uX c #F8DCB7",
"iX c #E6E4AA",
"pX c #FDE2AC",
"aX c #FEE0A6",
"sX c #EAE7B8",
"dX c #FEE3B2",
"fX c #FDE5BC",
"gX c #F7E5BA",
"hX c #E7E39B",
"jX c #CAC9C6",
"kX c #DBD5CA",
"lX c #D9D9D7",
"zX c #D3CCC2",
"xX c #E7DDC1",
"cX c #ECE9C6",
"vX c #F9E8C5",
"bX c #E8E2DB",
"nX c #EDF0D6",
"mX c #EDEDEB",
"MX c #EAE7E4",
"NX c #F3F1EE",
"BX c #F3F5F4",
"VX c #FCFEFC",
"CX c #F6F8F8",
"ZX c #EFF0EF",
"AX c #DEE0C6",
/* pixels */
"                                                                @ $ @                                                           ",
"                                                          = w x Q ( ! P e ,                                                     ",
"                                                        q ( y.a.h.|.|.|.h.5.P ,                                                 ",
"                                                    * u 2.p.i.a.g.g.j.j.k.|.|.@.q                                               ",
"                                            * * * * e @.8.u.u.i.i.i.g.h.j.k.k.|.2.<                                             ",
"                                      & * - - ; - p @.5.4.4.8.u.u.u.u.i.a.h.j.k.|.! @                                           ",
"                                    * - - ; - ; > Q 2.2.2.5.4.4.p. XoX X}.a.h.j.j.a.s                                           ",
"                                  = - - - - - - r ..X.:.2.2.3. XkXmXNXmXlXoXi.g.j.j.4.2                                         ",
"                                = ; - - - - ; > P  . .X.:.@. XMXCXCXBXCXCXMXoXu.i.a.h.( =                                       ",
"                              * - - - - - ; ; q ( } }  .X.3.kXBXMXmXCXmXbXNXkXu.u.i.a.p.d                                       ",
"                            = ; - - - - - ; 0 s ( ) ` } } 7.MX@XE %.MX{.L {.bXa.4.u.u.i.$.0                                     ",
"                            = ; - - ; - ; 0 e j ! ~ ~ ` ` 3.bX[.0 L jX+.0 +.kXu.4.4.8.8.p._ =                 *                 ",
"                            ; ; - - ; ; q s a l Q ^ ~ ~ ~ [ :XkX%.oXBX@X[.jX:X2.2.4.4.6.8.7.T < =     @ > q s P 0               ",
"                          = ; - ; = 2 s l j a l I Y Q ^ ~ ( $.jXNXmXmXmXNX9X4.1.2.2.2.4.4.8.8.Q d u i j I ( } { 0               ",
"                          ; - - > r x I x j s l P I Y T Q ! Q y.MXkX@XjXbXy. .X.1.2.2.2.4.4.4.~ ^ Q ! ( ( ( ) T :               ",
"              & @ @ & & & ; , u U Q Q I x l d j x P P I Y T T @.@XoX{.oX+X$.}  .X.X.:.2.2.2.5.) I T T Q Q ! Q u &               ",
"            = u g u u e g P ( [ ) ~ Q I P x l d l x x P P Y Y Q Q ! ! ( [ [ } }  . .X.X.2.2.2.) c P I I Y T f >                 ",
"            @ l } X.4.4.2.2.X.} ` ~ ^ T I P x j d j l x P P I I Y Y Y Q ! ~ [ } } } }  .X.X.2.~ x x x c P u >                   ",
"              q ~ X.8.4.5.2.X. .} ) ! Q Y I P l d g s s u p t t t t t t t p i f P T [ o...@.@.^ d l l l w =                     ",
"              = l o.u.8.4.2.:.X.| [ ~ ^ Q T L i t 8 8 B B B J J G.H.J.J.J.J.H J G 9 9 i U [ ..Y s s e 7 @                       ",
"                , I 3.u.4.5.2.X.X.| ) _ F t 4 5 N D G.I.L.Y.Y.T.T.Q.!.~./.'.'.).)._.W.H B p k z r q 1                           ",
"                  , l 3.y.4.4.2.@.( f t 6 m C S.S.D.I.I.L.L.Y.Y.E.Q.!.~./.^.(.(.`.`.`.`._.K.G 8 =                               ",
"                    = r U ( { R k 0 6 m C A A.S.S.D.F.I.L.P.P.Y.T.E.Q.!.~././.^.^.(.(.'.`.`.].H %                               ",
"                        @ = - 8 B N m C C A Z A.S.D.F.I.L.P.P.Y.T.E.Q.!.~.~./././.^.^.^.`.`.).H                                 ",
"                            % D H.S C C C A Z A.A.C N D D H.L.P.Y.Y.Y.T.T.E.Q.Q.!.!.~././._.W.B                                 ",
"                              D I.S Z Z Z Z S A m W #.&.L V D G.I.L.U.U.U.U.U.R.R.R.R.W.K.K W 7                                 ",
"                              B U.S.A.A.A.Z A M W 5.2.u.a.u.#.W V 5 5 8 V y y y V V 8 t E 7.7.'                                 ",
"                              8 G.C m M M 6 4 4 { ..} } } :.4.a.p.[ a I p.;X8X8X%X2.I X.2. .[ P                                 ",
"                              % 4 i c / ,.d.l.] a d P Q [ | |  .2.u.a.4.~ ..0X%X) [ 1.| ( l e                                   ",
"                                1 d.m.m.m.m.-X=Xl.) E U f f P T ( } X.4.p.P qXX.| } Q g +.L                                     ",
"                                  c c.m.M.M.m.m.1Xg.@XjX@X{.7.E P u g U l 1.cX} U _ [.i +.[.                                    ",
"                              h / ] ;.z.m.m.m.C.2Xl.jXZXBXCXCXBX@Xu * E l :XgXa.y.lXCX[.[.7.                                    ",
"                              k.4X<X&Xd.n.m.m.C.2X*X|.mXVXVXVXVX[.+ L MX{.yXfXwX+XVXVXBX#X                                      ",
"                              $X6Xv.d.4Xn.M.m.1X3X1Xb..X9XbXZXBXlX[.oX+XoXyXgXwXoX9XzX#XL                                       ",
"                              r.rX7Xd.<X<XM.m.1X3X1X1X=Xb.c.v.$X$X$X$X&XuXgX8XeXwX&X*X;XT                                       ",
"                              c >X5X7X5Xl.n.m.1X3X3X2X1X1X1X1X-X7X7XtXtXpXgX8XeXuXtXuXyXd                                       ",
"                                o.4XrX>Xh ,.m.C.3X3X2X6X6X6X7X7X4XtXtXpXdXdXdXfXfXfXvXqXu                                       ",
"                                  ] k.~   3 z.m.C.3X3X6X6X5X5X<Xl.tXpXdXdXdXdXfXvXvXvX+X,                                       ",
"                                            3 d.=X1X3X2X6X5X5XrXtXrXrXpXdXdXdXfXvXvXcX{                                         ",
"                                              2 :.*X1X2X2X6X5X5XrXrXaXaXpXdXdXfXvXxX3.$                                         ",
"                                                  h ,.b.1X5X5XrXrXrXaXaXpXdXfXgX%X[                                             ",
"                                                      a / r.l.*X>X4X4X4X>X%Xk.| w                                               ",
"                                                        $ q } ] n ] O...g w <                                                   ",
"                                                      0.f.o.q.B.,X0XAX+X~ *.c                                                   ",
"                                                    f.B.B.>.w.V.sXkX}.(  .b d                                                   ",
"                                                  O.V.Z.w.0.B.hX8Xu.g $ (  X$.k                                                 ",
"                                                z OXV.N.>.x.V.XX;.-.~ ( +XnXoX{                                                 ",
"                                                e.,XB.f.0.x.,.=.=.;.|.0XcXcXqX7.@.                                              ",
"                                              k ,XV.B.>.>.;.=.*.>.>XsXsXsXcXAXe.OXv                                             ",
"                                              5.eXB.B.b b =.*.g.0XiXiXsXsXsXcXe.,Xs.a ,.d.                                      ",
"                                              o.f.q.0.h ;.;.XXiXiXiXiXsXsXsXcXs.x.r.~ *X<X6.                                    ",
"                                            / ,.:.<.q./ j 5.t.t.t.s.s.e.e.e.}.[ d.d.;.,.$X~                                     ",
"                                          w $X1X1X1X1X*X2 X + + o X $ f , U & @ c ,.z.$X/ #                                     ",
"                                          3 v.1XC.C.1Xb.< . . . . . O f $ L % o < d.$X:.<                                       ",
"                                            ,.=X=XM.c.l.< # e e e s u L i r O     d :.g                                         ",
"                                            a :.,.;./ a     l } I ( Q P f 0                                                     ",
"                                                            P | d     d ( P                                                     ",
"                                                            f I s     s T f                                                     ",
"                                                          X X X X o o X O X X                                                   ",
"                                                          r P s 0 O . - p 0 * o                                                 ",
"                                                          ) | { k + . + L L @ X X                                               ",
"                                                          ' I I q O @ O u u X O X                                               ",
"                                                                                                                                ",
"                                                                                                                                "
};
