/* XPM */
static char *_f92a6ea5ee342fcb3be08e03435da5deChUGR9U7rRkpgFR[] = {
/* columns rows colors chars-per-pixel */
"64 64 233 2 ",
"   c #040100",
".  c #0B0301",
"X  c #0D0904",
"o  c #0B090A",
"O  c #120502",
"+  c #130A06",
"@  c #190B06",
"#  c #140D0A",
"$  c #1A0D0A",
"%  c #150509",
"&  c #14110C",
"*  c #1B120D",
"=  c #1B140A",
"-  c #190E11",
";  c #1C1412",
":  c #1E1914",
">  c #1E1C1A",
",  c #161314",
"<  c #0E1110",
"1  c #20130E",
"2  c #201006",
"3  c #231613",
"4  c #291714",
"5  c #231A15",
"6  c #291A15",
"7  c #251C1A",
"8  c #2B1E1B",
"9  c #241719",
"0  c #311E1C",
"q  c #301C17",
"w  c #230E10",
"e  c #25201B",
"r  c #2C221D",
"t  c #32221D",
"y  c #39201E",
"u  c #2D1F21",
"i  c #2D2521",
"p  c #2A2829",
"a  c #332522",
"s  c #382622",
"d  c #342A24",
"f  c #3B2B26",
"g  c #352C2A",
"h  c #3B2D2A",
"j  c #35332D",
"k  c #3B312C",
"l  c #363127",
"z  c #3E3431",
"x  c #3E3834",
"c  c #393833",
"v  c #64301B",
"b  c #422E2B",
"n  c #43332E",
"m  c #49342E",
"M  c #433532",
"N  c #4A3633",
"B  c #453A35",
"V  c #4B3A35",
"C  c #443D3A",
"Z  c #4B3D3A",
"A  c #523B35",
"S  c #523E3A",
"D  c #4D413D",
"F  c #45423B",
"G  c #54423D",
"H  c #5A443D",
"J  c #594237",
"K  c #764D38",
"L  c #4D4442",
"P  c #544541",
"I  c #5A4642",
"U  c #554945",
"Y  c #5C4B44",
"T  c #564E4A",
"R  c #5C4D4A",
"E  c #5E5146",
"W  c #5C524C",
"Q  c #57514C",
"!  c #5E5451",
"~  c #5F5954",
"^  c #624C45",
"/  c #634E4A",
"(  c #694F49",
")  c #694D45",
"_  c #635047",
"`  c #64524C",
"'  c #6A554D",
"]  c #6C5A4F",
"[  c #69554A",
"{  c #72564D",
"}  c #70594E",
"|  c #645552",
" . c #6A5652",
".. c #645A55",
"X. c #6D5A54",
"o. c #655C59",
"O. c #6D5D5A",
"+. c #6D5558",
"@. c #725C55",
"#. c #735E59",
"$. c #7A5E5B",
"%. c #735754",
"&. c #624E50",
"*. c #6D625C",
"=. c #66625A",
"-. c #736156",
";. c #74625C",
":. c #7A645D",
">. c #7B665C",
",. c #6C6463",
"<. c #746561",
"1. c #7B6661",
"2. c #756963",
"3. c #7D6A64",
"4. c #746C6A",
"5. c #7D6D6A",
"6. c #7E726C",
"7. c #7B7165",
"8. c #7E7673",
"9. c #B95112",
"0. c #8C5434",
"q. c #AF6534",
"w. c #C66D36",
"e. c #82675F",
"r. c #99684B",
"t. c #AE7759",
"y. c #826664",
"u. c #826B65",
"i. c #836D6A",
"p. c #8A6E6A",
"a. c #886A66",
"s. c #837167",
"d. c #84726C",
"f. c #8A736D",
"g. c #89776D",
"h. c #847572",
"j. c #8B7672",
"k. c #857974",
"l. c #8C7B74",
"z. c #867C79",
"x. c #8A7D7B",
"c. c #8B7779",
"v. c #927C75",
"b. c #937E7A",
"n. c #977976",
"m. c #916E6C",
"M. c #AD7F6A",
"N. c #D17640",
"B. c #8D827B",
"V. c #8A857C",
"C. c #938077",
"Z. c #93827C",
"A. c #9B837D",
"S. c #9C887D",
"D. c #A68A7F",
"F. c #B28972",
"G. c #D0834F",
"H. c #C7977B",
"J. c #8D8281",
"K. c #958581",
"L. c #9B8581",
"P. c #948984",
"I. c #9C8A84",
"U. c #9B8D89",
"Y. c #9D938C",
"T. c #929084",
"R. c #A48B86",
"E. c #A98B87",
"W. c #A58D89",
"Q. c #AA8D8A",
"!. c #A48583",
"~. c #B08E8A",
"^. c #AD9185",
"/. c #A5928C",
"(. c #AB928D",
"). c #A49388",
"_. c #B0928E",
"`. c #B39386",
"'. c #A39692",
"]. c #AC9491",
"[. c #A59A94",
"{. c #AB9A94",
"}. c #AB9E9A",
"|. c #A79D9B",
" X c #B29592",
".X c #B29A95",
"XX c #B29C99",
"oX c #B99E99",
"OX c #ACA29C",
"+X c #B3A39D",
"@X c #B5A69C",
"#X c #B2A6A2",
"$X c #BAA6A2",
"%X c #B5AAA4",
"&X c #BBABA5",
"*X c #B4ABA9",
"=X c #BDAEAA",
"-X c #BCB0A6",
";X c #BCB1AC",
":X c #BFB1B1",
">X c #C3ACA6",
",X c #C3AFA9",
"<X c #C3B3AC",
"1X c #C9B6AE",
"2X c #C8B9AE",
"3X c #C4B6B3",
"4X c #CEB6B2",
"5X c #C6BBB5",
"6X c #CBBBB3",
"7X c #CBBDB9",
"8X c #C5BEB9",
"9X c #D2BCB5",
"0X c #D3BEB9",
"qX c #D1B7B3",
"wX c #CDC2BB",
"eX c #D3C3BB",
"rX c #D7C7BB",
"tX c #E4CABB",
"yX c #DDC6C1",
"uX c #D5CAC2",
"iX c #DBCCC4",
"pX c #D9CBC6",
"aX c #DFD2C7",
"sX c #CDCDD5",
"dX c #E2CBC4",
"fX c #E5CBC6",
"gX c #E3D3CB",
"hX c #EAD5CC",
"jX c #E9D6CA",
"kX c #ECDBD2",
"lX c #E7D7D2",
"zX c #F0DDD6",
"xX c #EDE1D6",
/* pixels */
"3.3.3.1.3.f.:.;.5.* z.p.#.#.#.#.#.#.#.X.O...e B.Z.` [ '  ./ / ` I R 7 5.<X>.L.I.b.;. .#. .O.G M pX+XZ.u.X.#.P M i.` ' ( ' @.%.%.",
"3.3.3.3.1.1.1.1.5.* U.n.#.:.:.:.#.;.;.;.;.B : 6.I ' [ ' ` ` ` ` ` R $ U.b.^  .` `  .X.X.X.O.G h Z. . .X.X.;.D M {.3.p.i.f.v.n.n.",
"3.3.3.3.3.1.:.1.3.# [.oX%.:.$.#.%.#.#.;.:.n g h.X.X.X.X.@.X.X.X. .X.7 k.3.' O. .X.X.X.X.X.;.P 3 o. . .X. .#.V r =X(.Q.W.(.(.(.Q.",
"1.3.3.3.1.1.:.1.5.# B.0X:.1.u.f.j.v.v.A.(.d.Q l.3.u.u.u.i.u.u.u.3.g.M B 3.X.#.O.#.#.X.X.` | D 4 3.1.;.;.;.1.U 3 <X(.Q.Q.R.R.Q.Q.",
"u.3.3.3.3.1.1.;.| . k.hXW.W.(.(.(.(.(./.{.;.P l.y.y.>.u.u.u.1.1.3.d.U ; ` ` / Y G V f t t a 6 $ <.i.u.u.u.p.R * 3X.XR.Q.Q.Q.Q.E.",
" .' / I S V m m n + | ,X.XR.(.Q.Q.Q.W.R..XR * d.p.i.u.u.u.u.u.u.e.i.` + 4 a s s t a f h f h 6 O X.a.u.u.u.f.U $ I./.(.Q.E.Q.Q.(.",
"m m m m N b f n M # Z :.(.(.(.(. X].(.(..Xd.O N ^ %.3.i.i.i.i.i.i.f.O.+ 8 Z V S G S S Z Z D 8 @ O.u.1.u.u.i.P O V X.A.R._._.E.A.",
"a t a s f 9 # , : & x ;.l.l.v.j.d.;.X.;.2.*.8 a f h B S ) / / &./ Y n # ; e 8 s h B Z Z B Z 7 # T ! P P D D g ; L U P Y `  .Z g ",
". + .     . .       ; t f h n s t 3 $ $ @ O . . @ O O O @ 3 # # * 4 1               X = 1 7 * # . . . .       . . . O O & & + # ",
"j X d ~ 6.B.B.h.;.D r + .     + # r M S  .#.5.K.[.K.<.=.F + j c 7 + O U U.'.V.7.=.D l : O . X   L U.[./.].U.U.Y.Y.K.d.B & & x F ",
"4.U pXlXkXkXxXxXkXkXrX:X|.x.4.d j 8XpXiXyX0X<X&X@X+X{.'.D B pXuX3Xi k.lXjXgXfXjXkXhXrX2X+X'.[.C V.kXZ.j.I.}.-X<X;X2X6X].$ 5.lXyX",
". c.gX X~.v.l.g.v.Z.I.U.U.z.h.j 7 U.Y.L.u.#.' ' ' ` ` | @ d.yX4XK.5 wX<XW.W. XA.y.e.e.3.2.:.2.i 8.j.R ` / / / / ` E ` | w I.qXdX",
"  z.iXW.D.D.C.i.' ^ H I I R G : h b #.|  .X.X.@.@.-.:.P # /.i.' Z # #X(.^.^.(.R.n.1.[ ^ H A G 6 R X.X.@.@.@.%.X.X.X.X.B # Z.3..X",
"  8.pX).).(.(.(.(.A.i.%.' X.n * +XG M 2.<.;.@.X.' ^ G i ; ! ..' D & [.{.^.`.(.(.].]./.R.A.f.#.b b ;.^ ` ^ H S S V n f 7 . V.6.] ",
"  8.yX(./.(./.W.W.(.(.R.j.3.g ; ].$X8 5 B g 8 9 ; ; 9 ; ; T ,.,.F X U.{.(.Q.(.(.Q.(.(.(.(.(./.j.3 f 6 m H H G G Z V N n . h.d.@.",
"  6.yXQ.W.(.Q.Q.W.Q.R.Q.].K.g 5 #.1.R . .                 . ; : & . z.&X(. X(.(.(.W.W.Q.W.W.R.{.m O t n I H I I P I Y Y * 6.d.#.",
"  h.4XQ.(.Q.Q.Q.E.E.Q.W.].h.8 ; ;.| P ; D U U ..2.k.k.6.*.D B C i . M 5.j.!.].(.(.(.(.Q.E.Q.R.(.3.@ 6 m Y I G P P G G Y 8 h R G ",
"o B %.a.!.Q.]. X X X(.].x.` * ; O.*.k C uXiXyXdXdXdXdXdXdXyX6X/.<.3 4 M n ^ ;.;.#.d.R.].Q.(.(.].l.3 @ V I P P P P P G Y h O 8 a ",
"# 9 I H ^  .:.1.i.p.#.` Y P X B ,.W # *.P.j.m.n.n.p.p.m.a.a.%.^ | 3 3 Y ` ' / ` / Y ` #.u.i.1.@.| d . V Y P G G P P I P B @ 3 d ",
"< ; R [ ` ^ Y Y I I Y Y R d 9 O.o.g . ! *. .X. .X.X.X.%. .' X.*.W * @ d U R ` ` ` ` ` / ^ Y R Y ` M + h I I Y I I Y I I Y 1 # - ",
"< X r f f h k n M B M d 7 # 9 F d X X i d 8 r d d g h M B Z x j e + . . . . O @ 1 8 f d d a a d r 7 # ; 7 8 a a a f M Z k = + . ",
"& 5 : ; ; * + . %       . & # X X # ; 7 : 7 7 7 7 : # X .   . .   ; z L ! ! Q k ; X     <           X           . # @ @ . . 5 B ",
";X8X7X7X7X-XP.o.7 *.P.U.'.[.[.[.OX#X-X<X<X3X3X3X3X3X;XOXOX5.$ i B.=XuXaXaXeX=X<X&X'.h.C X L ,.6.P.Y.'.Y.U.P.<.B 9 # . + Z U.5XpX",
"&X/././.Z.-.W L g pX{.l.i.1.1.1.:.3.3.j.g.g.j.l.l.l.l.B.Y.z.3 +XkXfX1XA.3.X.I [ d.l./.L d gXkXjXiXiXeX1X<XeXiXpX7X%X5.;.jXgXeXrX",
"G V A A A J E r r -X@.$.1.1.1.y.>.e.A.W.p.>.3.>.:.1.1.>.;.X k aX1XS.[ H ^ ) ( [ ` I H @ P gX!.i.u.:.} ] ' @.:.d.3.k.L Z.9Xv.v.(.",
"1.3.1.1.1.@.' 3 7 +Xg.E.R.R.R.E.R.R.(.(.f.y.u.u.u.u.u.s.X.. U &X^ ( $.:.:.:.:.%.@. .N   *.>X) ( [ ' ' %.' ' [ X.S D . d.S.y.f.f.",
"5.i.i.i.i.y.d.g # +X(.(.(.Q.Q.(.Q.Q.(.n.y.i.5.3.3.5.3.u.V   T &Xi.d.d.i.i.i.i.i.i.c.R   ,.Z.:.:.@. . .%. . .' X.R V @ h.v.d.g.i.",
"2.3.3.u.u.y.i.B X U. XW.Q.W.Q.Q.W.(.S.u.y.u.u.3.u.u.i.%.d   T 4X.Xv.u.u.i.a.u.i.1.h.Y   ~ c.i.i.u.u.1.1.1.1.>.>.:.;.3 B.v.d.j.i.",
"y.y.y.1.3.y.1.l . A. X/.(.Q.Q.E.(.S.y.y.u.y.y.u.u.e.} A f   W 9XoX(.u.u.u.u.3.2.3.3.V . D j.i.y.i.s.s.s.s.s.s.s.7.d.4 ;.Z.f.f.f.",
"u.u.u.u.3.u.;.i . *.{./././.(.(.A.a.p.p.a.y.;.X.R V n m a   2.3Xj.v.i.i.i.i.6.6.5.| n . k X.u.d.d.d.d.s.d.d.s.d.u.h.d a C.j.j.j.",
";.@.X.X.| | U e # g ..E E E X.X.`  ./ I S M k d i 3 * 3 * . F x.O.<.;.;.;.*.=.o.W U M @ d G Y  .#.>.3.3.y.y.3.3.1.5.B @ ` <.;. .",
"1 3 5 4 4 3 $ . . . $ = = 1 5 5 * # : ; ; ; & X       . . .   . $ # # # + + .   . . .   . 3 i g h N A S G G S S G P h @ k Z V m ",
"D d 3 + M U W O.4.k.l.l.:.Y 8 O C x # X X # ; h U ..6.Z.{.}.[.K.k.B O 7 B L U U T W ` W C + . X + O @ O O O O O . . $ +   . . . ",
"-X*Xx.i *XOX<X<X<X=X$X&X=X/.r r lX[.B k k.[.XX$X&X&X}.{./.I.Z.d.d.G @ [.OX&X,X&X=X<X<X3X*X=.& ; 9 : 7 g C Q | o.o.! , j 4.8.J.K.",
"*.3.R k J.| X.@.@.X.X. .@.X.@ ..6X%.b / b.j.i.3.:.:.:.:.:.:.;.:.2.S 3 OX@X1.' X.X.X.X.O.L 7 F 8X;X8XwXuXwX;X&X&X#Xk.7 |.Y.Z.'.[.",
":.X.q h k.;.:.:.;.:.:.@.@.;.$ I.b.I 3 ;.3.3.y.u.y.i.i.u.u.3.3.1.i.V 6 @X/.;.;.@.@.@.@.1.G . l.gXwX{.C.3.| E ^ ^ G t 8 +X/ ` ` ` ",
":.;.t 6 5.<.1.1.:.1.1.:.:.3.6 U.h.V 4 3.i.u.a.a.i.a.a.u.u.i.u.i.X.h * *.;.;.;.;.;.;.X.4.h $ 4X9X(.u.;.X.X.X. ./ R t r 7Xi.;.;.;.",
"2.O.3 7 4.;.#.X.X.X. .` G G 4 U ;.V q d.d.i.p.i.i.u.i.i.1.@./ I N z # g U W ..| W ! W W # o.0XE.Q..X(.].Q.W.R.A.b.8 8 5X(.d.3.3.",
"n k * 3 C h b s a f f s t 6 # L <.n 1 R  .;.1.u.3.1. .I Z N N N M 8 O . . X . + + + @ + + Z.].Q.~.Q.Q.Q.(.Q.W.(.R.6 8 7Xn.3.1.1.",
"3 ; # # > 8 8 8 8 3 @ O @ * * W ..3 $ 4 h h n n k h f d d 8 6 $ . . 6 Z W W R P B d r ; 7 I.Q.Q.Q.(.Q.E.Q.Q.(./.X.3 i =Xb.j.g.j.",
"r 5 : # < X & .   & C M 3 +   # X X & + X X . . X X X . X X . i z.{.9XyXgXgXgXiXrXeX6X&XP L..XQ.Q.Q.Q.(.(.E.v.X.V 8 8 [.A.L.R.L.",
"wX7X3X;X*X8.. k k.3X8X7X8X#XB.o.U z # d D ` *.*.*.X.E Q R C # U.}.).+X&X+X/.L.Z.C.l.g.2.a P Z.U.].].].p.' / V M P d # =.h.6.O.Z ",
"C.b.R.j.l.o.B.0X>XC._ X.g.R./.&X0Xl.a wXrXtXjXjXfXjXtXrXeXwXZ U.5.2.2.3.:.;.d.v.A.A.A.5.7 # 4 d k V N y 4 5 3 3 3 & X & 3 3 9 9 ",
"' ' ' ' E B '. .^ ^ ] ` ` ^ S m t O | gX9X9X@Xv.g.g.f.-.R C 5 z.d.g.g.d.i.Z.{.]././.].K.4 + O . . . O @ 0 d 8 t 8 4 3 * @ @ $ 1 ",
"X.X.X.;.U C h./ @.X.] ' '  .' I S $ 4.#Xj.p.>.;.:.:.:.>.;.B ; 4.1.;.1.;.;.5.j.l.L.L.I.O.$ i.c.i.i.6.B $ K.7X6X6X6X6X=X@XOX{./...",
"O.X.X.O.n D +X/  .' '  .' X.%.%.;.f U i.>.>.3.3.3.3.3.e.d.T X g B V Z G G Z G P R P D 4 * h.b.b.b.l.D d k.I././.(.R.L.I./.{.L.;.",
"G G V n @ W 0Xi.u.y.3.u.u.u.i.u.f./ M h.u.y.3.u.u.3.3.u.1.M * # @ $ 3 * * * * * * # @ + r 5.<.#.#.;.r e ;.3.;.2.1.i.i.i.5.3.d.<.",
"n b b b @ 4.,Xu.p.p.d.p.i.i.i.p.f.#.4 / { {  .' ' ' ` ) H M :   .     < # & & < & < # . + F W o.1.X.= = d P ! ..| o.O. ...| Y N ",
"k h k d X T h.u.u.3.3.3.3.1.1.$.#.S % b S V Z Z Z Z Z V B 3 $ Y d.B.Y.$X;X#X'.B.6.o.d k U B B n f 3 .     . * 7 i u d r 3 $ + . ",
"& & & & # e d a 0 t d d g f a 0 i r # @ $ # + + + + # $ + 5 +XhXgXgXgX<XI.d.#. .` o.i }.hXiXiXeX<X#XU.6.o.z i ; - - . . 4 k z D ",
"          . X = O . .     & : ; X     . & 5 r i i 8 7 ; + B.<XXX$X+XZ. .`  .%.:.5.5.7 }.&X/.L.j.j.{.<XiXiXiXwX|.! # o.[.%X&X;X&X",
"R o.2.l.U.|.OXk i O.....W j X : L =.P.OX*X;X<X;X<X=X3Xz.M h.X.%.%.;.j.A.R.R.Q.R..Xc.$ X. .` ` ' ` _ ' >.j.g.2.O.g g lX{.X.X.X.X.",
"gXgXeX&X/.5.Q 4 U.uX4X4X4XK.1 B.&Xj.].XX(./.U.I.R.].K.7 *.+XR.A.n.R.(.(.(.W.Q.W.I.X.O I 1.#.;.#.@.@.X.[ ^ _ ` O.5 C pXd.X.X.X.X.",
"A.1./ H A V Z k K.b.b.n.b.f.$ C.>X$.$.a.!.R.W.(.R.].3.  h..XW.(.(.Q.(.(.R.(.R.i.<.D + R #.@.#.:.3.u.u.:.#.X. .X.# T iX.X/.A.d.;.",
"f.i.1.3.1.1. .8 3.R.L.S.I.3.O k.9XA.L.(.W.W.Q.W.R.(.p.. l. XQ./.R.W.W.W.Q.R.3.;.3.k # d.1.u.i.p.i.d.d.d.5.<.%.R   =.dX(./.{.(.W.",
"_._._.(.E.(.U.* a R.E.R.A./ O B.eX(.R.Q.W.W.E.E.!.(.a.O l.(.(.Q.Q.Q.W./.W.i.@.:.2.3 3 {.Q.f.u.i.i.i.i.5.i.i.#.M   d.lX(.M.F.^./.",
"Q.E.E.E.!.Q./.r @ ^ $.y.:.H = [.>Xb.R.R.R.Q.W.(.Q.(.f.. l.).W.E.E.W.].R.i.;.1.3.G @ d {. X!.u.i.u.i.5.5.d.#.o.g . ^ S.H.q.t.F./.",
"Q.Q.Q.Q.].Q.R.d O h M N V M $ 2.i.W.].(.(.W.R.n.j.L.1.O Z.+X/.].].R.j.X.` ` | M 7 . C &X XXXI.i.d.i.i.d.3. .X.> , [ 0.w.w.t.`.W.",
"W.W.R.L.j.1.+.g + 3 s h h 9 9 ! | ;.;.;.;.X.Y Z V Z B $ | 7.3.3. .G N b h h i 7 ; # C K.i.3.L.U.d.5.5.;.X. .| > o H N.9.w.K ..W ",
"P I S N h b M a .     .       ; 8 8 d a 4 $ $ * $ + O . . @ 2 6 4 8 6 1 $ O . . . . # d h g M M k h s 8 1 O X . O r.w.9.v A p p ",
". . @ $ O .   O d P *.6.6.2.U g $ + # # r ..3.k.B.B.6.O.P Z n k d @ . + $ g C C Z Z h 4 $ + . = O . $ k P X.,.-.r.q.G.t.I O.o g ",
"z.<.h O 5.Y.T.-XeXgXaXuXwXrXeXeX5X;XP.* 4.xXiX6X<XeXiXpXpXrXrX8X'.8 z.|.*X8XwXwXeXrX0X=X*X#Xx.; k Y.<XaXgXpXsXtXG.q.F.{.o.f &X6X",
"+X#Xx.. U.@X{.{.(.I.j.2.;.;.:.j.L.d.| + ! U.X.R I X.:.d.L.L.3...8 8 I.l.3.#.X.@.#.#.;.O.3.z.o.. Y.zX1XL.u.X.| ) 0.K J Z i t K.1.",
"` R z . Z.3. .X.X.X.@.#.;.;.X.#.` G Z . h R I ` ` / R I H I I I 1 8 ` / / ` / / ` / R Y Y h . * -X>X;.@.:.;.X.} { { ` | h # | | "
};
